<svg width="22" height="22" viewBox="0 0 22 22" fill="none" xmlns="http://www.w3.org/2000/svg">
<path fill-rule="evenodd" clip-rule="evenodd" d="M18.3103 16.2341L17.7855 15.8669C18.7471 14.4512 19.2553 12.7898 19.2553 11.0635C19.2553 6.3901 15.5086 2.58798 10.903 2.58798C9.35055 2.58798 7.83542 3.02312 6.52148 3.84651L6.18638 3.29586C7.60107 2.40971 9.23226 1.94092 10.903 1.94092C15.86 1.94092 19.893 6.03324 19.893 11.0635C19.893 12.9218 19.3459 14.71 18.3103 16.2341ZM10.9031 20.1855C5.94604 20.1855 1.91302 16.0935 1.91302 11.0633C1.91302 9.25831 2.43178 7.51287 3.41317 6.01622L3.94404 6.37469C3.03247 7.76458 2.55071 9.38611 2.55071 11.0633C2.55071 15.7367 6.29772 19.5385 10.9031 19.5385C12.6474 19.5385 14.3178 18.9988 15.7348 17.9774L16.104 18.5051C14.579 19.6045 12.7804 20.1855 10.9031 20.1855ZM19.0654 19.8032C19.1276 19.8663 19.2092 19.898 19.2909 19.898C19.3725 19.898 19.4541 19.8663 19.5163 19.8032C19.641 19.6767 19.641 19.4722 19.5163 19.3457L2.74081 2.32356C2.61614 2.19706 2.41431 2.19706 2.28996 2.32356C2.1653 2.44973 2.1653 2.65453 2.28996 2.78103L19.0654 19.8032Z" fill="#6E6E6E"/>
</svg>
